<svg xmlns="http://www.w3.org/2000/svg" viewBox="0 0 410 404" fill="none" role="img" aria-label="Laptop Shop icon">
  <path d="M399.641 59.525L215.643 388.545a22.592 22.592 0 0 1-39.286 0L10.36 59.525C1.718 44.073 14.637 25.336 32.154 28.321l175.38 29.884a22.59 22.59 0 0 0 7.586 0l162.366-27.681c17.35-2.958 30.223 15.376 21.155 31.001Z" fill="#41D1FF"/>
  <path d="M292.965 1.574 156.992 28.24a11.294 11.294 0 0 0-9.13 9.293l-8.37 141.273a11.294 11.294 0 0 0 13.6 11.657l37.857-8.732c8.878-2.05 16.888 5.772 14.462 14.56l-11.246 40.77c-2.416 8.76 5.53 16.57 14.399 14.59l23.383-5.216c8.878-1.98 16.834 5.84 14.39 14.59l-17.878 64.03c-1.12 4.013 4.215 6.201 6.106 2.508l1.263-2.469 110.817-221.182c1.854-3.699-1.345-7.86-5.353-7.074l-38.977 7.571c-9.045 1.757-16.733-6.679-13.885-15.453l25.439-78.264c2.849-8.781-4.865-17.223-13.93-15.444Z" fill="#BD34FE"/>
</svg>